<?xml version="1.0" encoding="utf-8"?>
<!-- Generator: Adobe Illustrator 21.0.0, SVG Export Plug-In . SVG Version: 6.00 Build 0)  -->
<svg version="1.1" id="Layer_1" xmlns="http://www.w3.org/2000/svg" xmlns:xlink="http://www.w3.org/1999/xlink" x="0px" y="0px"
	 viewBox="0 0 256 256" style="enable-background:new 0 0 256 256;" xml:space="preserve">
<style type="text/css">
	.st0{fill:#A2A7D4;}
	.st1{opacity:0.1;fill:#FFFFFF;}
	.st2{opacity:0.2;fill:#010101;}
	.st3{fill:#EEEDEE;}
	.st4{fill:#FFD22A;}
	.st5{opacity:0.2;fill:#FFFFFF;}
	.st6{fill:#D59A29;}
	.st7{fill:#3DB54A;}
	.st8{fill:#FFFFFF;}
</style>
<g>
	<g>
		<path class="st0" d="M8.2,39.1c39.5,0,75.4-13.9,102.7-36.6c27.3,22.7,63.2,36.6,102.7,36.6v71.5c0,64.4-42.4,119.3-102.7,142.7
			C50.6,229.9,8.2,175,8.2,110.6V39.1z"/>
		<path class="st1" d="M110.9,240.1c-26-10.9-48.1-28.1-64.1-50c-17.3-23.5-26.4-51-26.4-79.5V50.9c32.9-2.3,64.4-13.7,90.5-32.9
			c26.1,19.2,57.6,30.6,90.5,32.9v59.7c0,28.5-9.1,56-26.4,79.5C159,212,136.9,229.2,110.9,240.1z"/>
	</g>
	<path class="st2" d="M150.8,109h-1.9V98c0-18.5-14.5-34-33-34.6c-19.4-0.7-35.4,14.9-35.4,34.2V109h-1.9c-5.3,0-9.5,4.3-9.5,9.5
		v60.8c0,5.3,4.3,9.5,9.5,9.5h72.2c5.3,0,9.5-4.3,9.5-9.5v-60.8C160.3,113.3,156.1,109,150.8,109z M91.9,97.9
		c0-12.2,9.5-22.5,21.7-23.1c13.1-0.6,23.9,9.8,23.9,22.8V109H91.9V97.9z"/>
	<g>
		<g>
			<path class="st3" d="M88.1,94.1c0-12.2,9.5-22.5,21.7-23.1c13.1-0.6,23.9,9.8,23.9,22.8V128h11.4V94.2c0-18.5-14.5-34-33-34.6
				c-19.4-0.7-35.4,14.9-35.4,34.2V128h11.4V94.1z"/>
		</g>
		<g>
			<path class="st4" d="M134.6,185H87.2c-12.1,0-22-9.8-22-22v-36c0-12.1,9.8-22,22-22h47.4c12.1,0,22,9.8,22,22v36
				C156.5,175.2,146.7,185,134.6,185z"/>
		</g>
		<path class="st5" d="M72.9,175.5v-60.8c0-5.3,4.3-9.5,9.5-9.5h-7.6c-5.3,0-9.5,4.3-9.5,9.5v60.8c0,5.3,4.3,9.5,9.5,9.5h7.6
			C77.1,185,72.9,180.8,72.9,175.5z"/>
		<g>
			<circle class="st6" cx="110.9" cy="139.4" r="11.4"/>
		</g>
		<g>
			<rect x="105.2" y="139.4" class="st6" width="11.4" height="22.8"/>
		</g>
	</g>
	<g>
		<circle class="st7" cx="190.8" cy="196.5" r="57"/>
	</g>
	<g>
		<polygon class="st8" points="180.5,224.7 156.9,201 164.9,193 180.5,208.6 216.8,172.3 224.9,180.3 		"/>
	</g>
</g>
</svg>
